<?xml version="1.0" encoding="utf-8"?>
<!-- Generator: Adobe Illustrator 19.2.1, SVG Export Plug-In . SVG Version: 6.00 Build 0)  -->
<svg version="1.1" id="Layer_1" xmlns="http://www.w3.org/2000/svg" xmlns:xlink="http://www.w3.org/1999/xlink" x="0px" y="0px"
	 width="178.7px" height="23.2px" viewBox="0 0 178.7 23.2" style="enable-background:new 0 0 178.7 23.2;" xml:space="preserve">
<style type="text/css">
	.st0{fill:#FF6264;}
</style>
<g>
	<path class="st0" d="M3.3,16.2h2.5c1.4,0,2.7,0,3.3-0.1v1.6c-0.6,0-1.9-0.1-3.3-0.1H1.5c0-1.1,0.1-2.8,0.1-3.7V7
		c0-1.4,0-3.1-0.1-3.7h1.8c0,0.6-0.1,2.3-0.1,3.7V16.2z"/>
	<path class="st0" d="M16.4,13.9c0,1.4,0,3.1,0.1,3.7h-1.9c0-0.6,0.1-2.3,0.1-3.7V7c0-1.4,0-3.1-0.1-3.7h1.9c0,0.6-0.1,2.3-0.1,3.7
		V13.9z"/>
	<path class="st0" d="M23.6,17.6c0-0.6,0.1-2.3,0.1-3.7V7c0-1.4,0-3.1-0.1-3.7h3.6c1.4,0,2.8,0,3.4-0.1v1.6c-0.6-0.1-2-0.1-3.4-0.1
		h-1.8v5h1.8c1.3,0,2.2,0,2.8-0.1v1.6c-0.6-0.1-1.5-0.1-2.8-0.1h-1.8v2.8c0,1.4,0,3.1,0.1,3.7H23.6z"/>
	<path class="st0" d="M38.4,16.2h1.8c1.4,0,2.9,0,3.5-0.1v1.5c-0.6,0-2.1-0.1-3.5-0.1h-3.6c0-1.1,0.1-2.8,0.1-3.7V7
		c0-1.4,0-3.1-0.1-3.7h3.4c1.4,0,2.9,0,3.5-0.1v1.6c-0.6-0.1-2.1-0.1-3.5-0.1h-1.7v4.6H40c1.4,0,2.6,0,3.3-0.1v1.5
		c-0.6,0-1.8-0.1-3.3-0.1h-1.7V16.2z"/>
	<path class="st0" d="M65.4,3.3c1.4,0,3,0,3.6-0.1v1.5c-0.6,0-2.2-0.1-3.6-0.1h-1.5c0,0.8,0,1.8,0,2.7v6.5c0,1.4,0,3.1,0.1,3.7h-1.9
		c0-0.6,0.1-2.3,0.1-3.7V7.4c0-0.9,0-1.9-0.1-2.7h-1.4c-1.4,0-2.9,0-3.6,0.1V3.2c0.6,0,2.2,0.1,3.6,0.1H65.4z"/>
	<path class="st0" d="M80.4,3c4.1,0,7.4,3.3,7.4,7.4c0,4.1-3.3,7.4-7.4,7.4c-4.1,0-7.4-3.3-7.4-7.4C73,6.4,76.2,3,80.4,3z
		 M80.4,16.4c3.1,0,5.7-2.7,5.7-6c0-3.3-2.5-5.9-5.7-5.9s-5.7,2.7-5.7,5.9C74.7,13.7,77.2,16.4,80.4,16.4z"/>
	<path class="st0" d="M95.8,13.9c0,1.4,0,3.1,0.1,3.7h-1.8c0-0.6,0.1-2.3,0.1-3.7V6.6c0-1.4,0-2.7-0.1-3.3h3.2c3,0,4.7,1.9,4.7,4.3
		c0,2.5-1.9,4.3-4.7,4.3h-1.4V13.9z M95.8,10.7h1.3c1.9,0,3.2-1.5,3.2-3.1c0-1.6-1.1-3-3.2-3h-1.3V10.7z"/>
	<path class="st0" d="M109.7,13.9c0,1.4,0,3.1,0.1,3.7H108c0-0.6,0.1-2.3,0.1-3.7V6.6c0-1.4,0-2.7-0.1-3.3h3.2c3,0,4.7,1.9,4.7,4.3
		c0,2.5-1.9,4.3-4.7,4.3h-1.4V13.9z M109.7,10.7h1.3c1.9,0,3.2-1.5,3.2-3.1c0-1.6-1.1-3-3.2-3h-1.3V10.7z"/>
	<path class="st0" d="M123.7,13.9c0,1.4,0,3.1,0.1,3.7h-1.9c0-0.6,0.1-2.3,0.1-3.7V7c0-1.4,0-3.1-0.1-3.7h1.9c0,0.6-0.1,2.3-0.1,3.7
		V13.9z"/>
	<path class="st0" d="M130.8,17.6c0-0.6,0.1-1.9,0.1-3V7c0-1.3,0-2.9-0.1-4h0.4c0.6,0.8,1,1.2,1.7,2l7.7,9.2V7c0-1.2,0-2.9-0.1-3.7
		h1.8c0,0.9-0.1,2.6-0.1,3.7v7.8c0,0.9,0,1.8,0.1,3H142c-0.5-0.7-0.9-1.1-1.5-1.9l-7.9-9.4l0,8c0,1.1,0,2.4,0.1,3H130.8z"/>
	<path class="st0" d="M160.3,17.1c-1.3,0.4-2.2,0.7-3.9,0.7c-4.5,0-7.7-3.3-7.7-7.4c0-4.1,3.1-7.4,7.7-7.4c1.5,0,2.5,0.3,3.7,0.7v2
		c-1-0.9-2.2-1.1-3.6-1.1c-3.5,0-6,2.6-6,5.9c0,3.3,2.5,5.9,6,5.9c0.9,0,1.8-0.1,2.3-0.4v-2.4c0-1.5,0-2-0.1-2.6h1.8
		c0,0.6-0.1,1.2-0.1,2.6V17.1z"/>
	<path class="st0" d="M174,13.8c0,2.4-1.8,4.1-4.3,4.1c-1.4,0-2.2-0.4-3.3-0.5V15c0.5,0.9,1.9,1.5,3.3,1.5c1.5,0,2.5-1,2.5-2.5
		c0-3.1-5.3-3.1-5.3-7.2c0-2.4,1.7-3.8,4.1-3.8c1.1,0,1.8,0.3,2.6,0.4v2.3c-0.4-0.9-1.4-1.3-2.6-1.3c-1.4,0-2.4,0.8-2.4,2.3
		C168.5,9.6,174,9.7,174,13.8z"/>
</g>
</svg>
